<?xml version="1.0" standalone="no"?>
<!DOCTYPE svg PUBLIC "-//W3C//DTD SVG 20010904//EN"
 "http://www.w3.org/TR/2001/REC-SVG-20010904/DTD/svg10.dtd">
<svg version="1.0" xmlns="http://www.w3.org/2000/svg"
 width="300.000000pt" height="300.000000pt" viewBox="0 0 300.000000 300.000000"
 preserveAspectRatio="xMidYMid meet">

<g transform="translate(0.000000,300.000000) scale(0.100000,-0.100000)"
fill="#000000" stroke="none">
<path d="M1340 2279 c-58 -26 -214 -144 -268 -204 -52 -55 -100 -154 -112
-227 -5 -29 -12 -65 -16 -81 -3 -15 -2 -33 5 -41 8 -10 4 -20 -19 -44 -29 -31
-30 -35 -30 -126 0 -87 2 -97 26 -125 14 -17 30 -31 36 -31 5 0 21 -9 35 -20
14 -11 36 -20 48 -20 43 0 49 22 50 179 0 175 -5 200 -44 207 -38 8 -46 41
-27 109 39 133 156 246 313 302 66 24 247 24 323 0 151 -47 276 -167 316 -304
19 -66 11 -99 -27 -107 -39 -7 -44 -31 -44 -207 0 -156 7 -179 49 -179 11 0
32 9 46 20 14 11 30 20 37 20 6 0 23 14 37 31 24 28 26 38 26 123 0 87 -2 94
-29 126 -23 28 -27 39 -19 54 7 13 7 31 0 55 -6 20 -16 61 -22 92 -14 72 -66
161 -130 221 -79 74 -218 174 -259 187 -21 6 -87 11 -147 11 -88 0 -118 -4
-154 -21z m283 -33 c25 -7 58 -23 73 -35 31 -25 28 -25 -51 -6 -78 19 -226 19
-298 0 -32 -8 -61 -15 -65 -15 -13 0 60 43 96 56 49 17 187 17 245 0z m-553
-535 c0 -5 3 -16 6 -25 4 -11 1 -16 -10 -16 -10 0 -16 9 -16 25 0 14 5 25 10
25 6 0 10 -4 10 -9z m880 -16 c0 -16 -6 -25 -16 -25 -11 0 -14 5 -10 16 3 9 6
20 6 25 0 5 5 9 10 9 6 0 10 -11 10 -25z m-926 -16 c10 -51 5 -66 -9 -29 -16
42 -18 60 -6 60 5 0 11 -14 15 -31z m970 4 c-4 -16 -11 -37 -15 -48 -7 -18 -8
-18 -8 5 -1 35 10 70 20 70 5 0 6 -12 3 -27z m-1046 -175 c7 -7 12 -26 12 -42
0 -26 -2 -28 -14 -16 -18 18 -32 70 -19 70 5 0 14 -5 21 -12z m1108 -56 c-15
-15 -16 -14 -16 14 0 16 6 36 13 43 10 10 13 7 15 -15 2 -15 -3 -34 -12 -42z
m-1031 -21 c-4 -23 -11 -41 -16 -41 -12 0 -11 5 3 51 14 49 22 43 13 -10z m55
34 c0 -8 -4 -15 -9 -15 -13 0 -22 16 -14 24 11 11 23 6 23 -9z m860 0 c0 -8
-4 -15 -10 -15 -5 0 -10 7 -10 15 0 8 5 15 10 15 6 0 10 -7 10 -15z m56 -72
c-11 -11 -18 4 -22 49 l-4 43 16 -43 c9 -24 13 -46 10 -49z m-928 15 c-2 -12
-8 -23 -14 -25 -7 -2 -10 6 -7 22 6 30 26 34 21 3z m882 13 c0 -5 3 -16 6 -25
4 -11 1 -16 -10 -16 -10 0 -16 9 -16 25 0 14 5 25 10 25 6 0 10 -4 10 -9z"/>
<path d="M1851 1474 c0 -11 3 -14 6 -6 3 7 2 16 -1 19 -3 4 -6 -2 -5 -13z"/>
<path d="M1181 1434 c0 -11 3 -14 6 -6 3 7 2 16 -1 19 -3 4 -6 -2 -5 -13z"/>
<path d="M1410 1230 c0 -11 2 -20 4 -20 2 0 6 9 9 20 3 11 1 20 -4 20 -5 0 -9
-9 -9 -20z"/>
<path d="M1661 1204 c0 -11 3 -14 6 -6 3 7 2 16 -1 19 -3 4 -6 -2 -5 -13z"/>
<path d="M1170 911 c0 -16 6 -21 26 -21 33 0 30 33 -4 38 -17 3 -22 -2 -22
-17z"/>
<path d="M1860 828 c0 -68 4 -108 12 -116 7 -7 31 -12 55 -12 36 0 43 3 43 20
0 16 -7 20 -30 20 -29 0 -30 2 -30 45 0 43 1 45 30 45 23 0 30 4 30 20 0 15
-7 20 -29 20 -25 0 -30 4 -33 28 -2 19 -9 28 -25 30 -23 3 -23 2 -23 -100z"/>
<path d="M380 785 c0 -84 0 -85 25 -85 24 0 25 2 25 65 l0 65 30 0 30 0 0 -65
c0 -58 2 -65 20 -65 18 0 20 7 20 66 l0 65 33 -3 32 -3 0 -60 c0 -54 2 -60 23
-63 21 -3 22 0 22 70 0 44 -5 79 -12 86 -8 8 -52 12 -130 12 l-118 0 0 -85z"/>
<path d="M710 801 c0 -100 1 -101 79 -101 36 0 73 5 81 10 10 6 16 32 18 84
l4 76 -26 0 c-25 0 -26 -2 -26 -65 l0 -65 -45 0 -45 0 0 65 c0 58 -2 65 -20
65 -18 0 -20 -7 -20 -69z"/>
<path d="M942 853 c-4 -10 -7 -28 -7 -40 4 -40 24 -53 81 -53 34 0 54 -4 54
-11 0 -8 -19 -10 -64 -6 -70 7 -80 3 -65 -24 8 -16 21 -19 77 -19 77 0 89 6
96 42 8 46 -18 68 -80 68 -34 0 -54 4 -54 11 0 8 19 10 65 6 64 -6 71 -3 59
27 -9 24 -150 23 -162 -1z"/>
<path d="M1170 785 c0 -83 1 -85 24 -85 24 0 24 2 25 85 1 84 1 85 -24 85 -25
0 -25 -1 -25 -85z"/>
<path d="M1277 863 c-9 -8 -9 -126 -1 -147 5 -13 23 -16 90 -16 77 0 84 2 84
20 0 18 -7 20 -70 20 l-70 0 0 45 0 44 67 3 c55 2 68 6 71 21 3 15 -6 17 -81
17 -46 0 -87 -3 -90 -7z"/>
<path d="M1637 863 c-12 -11 -8 -78 5 -91 7 -7 36 -12 65 -12 33 0 53 -4 53
-11 0 -8 -19 -10 -64 -6 -71 7 -80 3 -65 -25 9 -16 20 -18 87 -16 l77 3 3 38
c5 54 -10 67 -74 67 -34 0 -54 4 -54 11 0 8 19 10 64 6 70 -7 80 -3 65 24 -8
16 -22 19 -83 19 -40 0 -76 -3 -79 -7z"/>
<path d="M2030 851 c-5 -11 -10 -41 -10 -66 0 -76 10 -85 88 -85 40 0 73 5 80
12 7 7 12 39 12 73 0 34 -5 66 -12 73 -7 7 -40 12 -80 12 -56 0 -69 -3 -78
-19z m130 -66 l0 -45 -45 0 -45 0 0 45 0 45 45 0 45 0 0 -45z"/>
<path d="M2262 858 c-7 -7 -12 -42 -12 -85 0 -71 1 -73 25 -73 24 0 25 2 25
65 l0 65 45 0 c38 0 45 3 45 20 0 18 -7 20 -58 20 -32 0 -63 -5 -70 -12z"/>
<path d="M2452 858 c-16 -16 -16 -130 0 -146 7 -7 43 -12 90 -12 71 0 78 2 78
20 0 18 -7 20 -70 20 -40 0 -70 4 -70 10 0 6 30 10 70 10 l70 0 0 43 c0 24 -5
48 -12 55 -7 7 -40 12 -78 12 -38 0 -71 -5 -78 -12z m118 -44 c0 -12 -9 -14
-42 -12 -59 4 -63 28 -4 28 35 0 46 -4 46 -16z"/>
</g>
</svg>
