<?xml version="1.0" standalone="no"?>
<!DOCTYPE svg PUBLIC "-//W3C//DTD SVG 20010904//EN"
 "http://www.w3.org/TR/2001/REC-SVG-20010904/DTD/svg10.dtd">
<svg version="1.0" xmlns="http://www.w3.org/2000/svg"
 width="300.000000pt" height="300.000000pt" viewBox="0 0 300.000000 300.000000"
 preserveAspectRatio="xMidYMid meet">

<g transform="translate(0.000000,300.000000) scale(0.100000,-0.100000)"
fill="#000000" stroke="none">
<path d="M2050 2389 c0 -5 5 -7 10 -4 6 3 10 8 10 11 0 2 -4 4 -10 4 -5 0 -10
-5 -10 -11z"/>
<path d="M1380 2289 c-117 -23 -262 -132 -319 -239 -53 -99 -80 -230 -47 -230
9 0 15 19 20 57 18 152 148 310 299 363 127 45 243 35 375 -31 82 -42 119 -45
72 -7 -98 79 -259 114 -400 87z"/>
<path d="M1917 2239 c7 -7 15 -10 18 -7 3 3 -2 9 -12 12 -14 6 -15 5 -6 -5z"/>
<path d="M1387 2229 c-20 -5 -61 -21 -90 -35 -110 -56 -177 -133 -217 -249
-20 -57 -27 -131 -12 -121 4 2 28 7 52 11 67 9 128 43 161 88 16 22 29 45 29
51 0 21 57 131 85 164 l28 33 -39 -5 -39 -6 30 14 c17 8 64 19 105 26 l75 11
89 -45 c49 -25 93 -43 97 -40 20 12 6 32 -38 56 -98 53 -216 71 -316 47z"/>
<path d="M1531 2146 c-9 -11 -5 -15 20 -20 17 -3 52 -16 77 -27 57 -26 74 -31
65 -16 -4 7 0 8 12 3 40 -15 -11 27 -60 50 -57 27 -97 30 -114 10z"/>
<path d="M1843 2129 c-9 -9 -7 -19 12 -43 69 -92 100 -194 92 -306 -15 -224
-177 -398 -399 -429 -57 -8 -89 -24 -75 -38 4 -3 41 -1 83 5 195 31 360 177
410 367 37 138 0 317 -89 428 -17 22 -25 25 -34 16z"/>
<path d="M1470 2093 l-22 -28 64 -6 c34 -3 77 -13 94 -22 28 -14 31 -14 41 2
10 16 7 20 -15 31 -24 11 -131 50 -138 50 -1 0 -12 -12 -24 -27z"/>
<path d="M1793 2074 c-3 -9 1 -29 11 -44 24 -41 20 -46 -10 -10 -21 25 -29 28
-41 18 -14 -11 -14 -19 2 -63 7 -20 6 -20 -9 -1 -15 19 -51 33 -41 16 3 -5 0
-10 -7 -12 -10 -4 -10 -11 0 -34 13 -28 13 -28 -6 -11 -18 17 -20 16 -50 -19
-17 -20 -36 -33 -41 -29 -7 3 -8 0 -5 -9 3 -9 2 -16 -4 -16 -5 0 -10 -17 -9
-37 1 -21 -3 -51 -7 -67 l-9 -29 50 5 c51 5 129 48 115 63 -4 4 0 6 9 2 9 -3
16 0 16 6 -1 33 4 47 17 47 48 0 27 -121 -31 -180 -26 -26 -159 -99 -211 -114
-12 -4 -27 -16 -32 -27 -10 -17 -7 -19 30 -19 22 0 57 7 77 15 20 8 38 13 40
11 6 -6 -81 -46 -99 -46 -30 0 -48 -12 -48 -31 0 -25 39 -25 119 0 33 10 59
15 56 11 -8 -13 -112 -50 -138 -50 -26 0 -47 -17 -47 -38 0 -11 10 -12 43 -7
168 27 300 126 358 272 20 48 24 76 24 163 0 93 -3 112 -27 163 -32 67 -65
117 -79 117 -5 0 -12 -7 -16 -16z"/>
<path d="M1440 2021 c0 -11 -6 -22 -12 -24 -7 -3 16 -6 52 -6 36 -1 76 -3 90
-4 16 -1 25 3 25 13 0 17 -63 38 -117 39 -31 1 -38 -3 -38 -18z"/>
<path d="M1434 1935 c9 -29 16 -35 39 -35 34 0 85 49 65 62 -7 4 -36 8 -64 8
l-51 0 11 -35z"/>
<path d="M909 1763 c-13 -17 -13 -17 6 -3 11 8 22 16 24 17 2 2 0 3 -6 3 -6 0
-17 -8 -24 -17z"/>
<path d="M1252 908 c-19 -19 -15 -55 7 -61 27 -7 51 11 51 37 0 33 -35 47 -58
24z"/>
<path d="M1943 872 c-30 -3 -33 -6 -33 -36 0 -25 -5 -35 -20 -39 -23 -6 -27
-27 -5 -27 13 0 14 -7 8 -37 -4 -21 -8 -60 -8 -88 0 -45 2 -50 23 -53 28 -4
82 16 82 30 0 6 -9 8 -20 5 -17 -4 -20 0 -19 26 1 74 13 111 38 117 31 7 40
30 12 30 -16 0 -20 8 -23 38 -3 35 -5 37 -35 34z"/>
<path d="M2130 802 c-57 -6 -100 -59 -100 -124 1 -121 129 -122 170 -1 7 20
20 33 35 37 32 8 32 26 1 26 -18 0 -25 7 -29 29 -7 31 -23 38 -77 33z m6 -38
c-8 -20 11 -54 29 -54 19 0 19 -14 -1 -51 -11 -22 -21 -29 -37 -27 -28 4 -35
60 -13 112 14 34 35 53 22 20z"/>
<path d="M390 794 c0 -3 5 -14 10 -24 7 -13 5 -40 -5 -90 -20 -94 -20 -92 18
-88 31 3 32 5 47 76 10 47 21 77 32 83 23 13 28 0 18 -47 -5 -21 -10 -56 -10
-76 0 -35 2 -38 29 -38 27 0 29 2 41 75 12 73 32 108 49 89 5 -5 4 -36 -2 -70
-6 -34 -7 -68 -4 -77 8 -20 55 -22 80 -3 21 16 22 26 2 26 -18 0 -19 18 -5 89
5 28 7 58 4 66 -7 18 -43 19 -79 3 -19 -9 -28 -9 -37 0 -17 17 -49 15 -76 -4
-20 -14 -22 -14 -22 0 0 12 -11 16 -45 16 -25 0 -45 -3 -45 -6z"/>
<path d="M767 793 c-4 -3 -2 -12 3 -18 7 -9 5 -34 -5 -79 -11 -49 -13 -72 -5
-86 12 -22 49 -26 82 -9 14 8 23 8 31 0 14 -14 52 -14 78 -1 24 14 25 30 0 30
-18 0 -18 3 -5 73 19 99 19 99 -18 95 -32 -3 -33 -4 -48 -83 -13 -70 -18 -80
-37 -83 -27 -4 -27 -5 -8 73 22 91 21 95 -23 95 -21 0 -42 -3 -45 -7z"/>
<path d="M1042 784 c-30 -20 -28 -35 11 -86 46 -60 49 -66 41 -79 -4 -7 -15
-1 -28 16 -19 24 -25 26 -44 16 -49 -26 -15 -64 54 -59 38 2 51 8 68 31 20 27
20 29 4 57 -15 26 -15 33 -3 57 20 39 4 63 -43 63 -21 0 -48 -7 -60 -16z m88
-23 c0 -28 -19 -36 -35 -15 -16 22 -11 34 16 34 12 0 19 -7 19 -19z"/>
<path d="M1217 794 c-3 -4 -2 -15 4 -25 6 -13 5 -39 -6 -84 -8 -35 -12 -71 -9
-80 8 -19 62 -20 87 -1 22 17 22 26 -3 26 -24 0 -24 0 -5 70 24 89 22 100 -23
100 -21 0 -42 -3 -45 -6z"/>
<path d="M1402 784 c-72 -50 -67 -185 7 -196 32 -5 84 12 96 32 11 18 0 22
-28 9 -37 -17 -57 2 -57 55 0 69 45 129 52 69 2 -22 8 -28 28 -28 32 0 41 42
14 62 -24 18 -85 16 -112 -3z"/>
<path d="M1705 780 c-15 -17 -16 -24 -5 -50 7 -16 15 -30 19 -30 3 0 17 -16
30 -35 16 -24 21 -39 14 -46 -7 -7 -15 -2 -27 15 -19 30 -38 33 -57 10 -31
-37 39 -73 97 -49 45 19 59 48 40 85 -11 23 -12 36 -4 58 18 46 5 62 -45 62
-31 0 -49 -6 -62 -20z m95 -12 c0 -7 -5 -20 -10 -28 -9 -13 -12 -12 -25 4 -8
10 -12 23 -9 27 8 14 44 10 44 -3z"/>
<path d="M2264 748 c0 -29 -3 -77 -8 -106 l-9 -53 34 3 c32 3 33 4 46 72 14
78 25 95 47 77 11 -9 20 -10 35 -1 23 12 26 27 11 50 -8 12 -14 13 -42 2 -21
-8 -34 -9 -36 -2 -2 5 -21 10 -41 10 l-38 0 1 -52z"/>
<path d="M2481 772 c-28 -23 -34 -36 -39 -80 -7 -73 13 -102 72 -102 28 0 52
7 67 19 31 25 21 34 -20 18 -27 -10 -33 -9 -41 3 -16 26 -11 37 20 44 37 7 80
48 80 75 0 56 -84 70 -139 23z m77 -16 c4 -19 -23 -66 -38 -66 -13 0 -13 46 1
71 12 23 32 20 37 -5z"/>
</g>
</svg>
