<?xml version="1.0" standalone="no"?>
<!DOCTYPE svg PUBLIC "-//W3C//DTD SVG 20010904//EN"
 "http://www.w3.org/TR/2001/REC-SVG-20010904/DTD/svg10.dtd">
<svg version="1.0" xmlns="http://www.w3.org/2000/svg"
 width="224.000000pt" height="200.000000pt" viewBox="0 0 224.000000 200.000000"
 preserveAspectRatio="xMidYMid meet">

<g transform="translate(0.000000,200.000000) scale(0.100000,-0.100000)"
fill="#000000" stroke="none">
<path d="M970 1857 c-166 -56 -288 -188 -324 -347 -20 -87 -20 -111 -1 -104 8
3 17 26 21 52 25 175 153 321 326 373 121 37 273 15 378 -55 24 -16 42 -21 51
-15 11 7 10 11 -6 23 -122 91 -304 121 -445 73z"/>
<path d="M986 1800 c-71 -23 -155 -79 -196 -130 -39 -49 -87 -153 -95 -207 -7
-43 -7 -43 25 -43 111 0 183 53 229 169 18 43 47 98 64 122 l31 42 -34 -6 -35
-6 28 15 c15 8 62 20 105 26 76 11 79 11 137 -17 33 -15 72 -36 86 -46 20 -14
29 -15 37 -7 19 19 15 24 -30 51 -100 58 -240 73 -352 37z"/>
<path d="M1169 1731 l-24 -20 31 -1 c16 0 54 -12 83 -26 47 -24 54 -25 68 -12
13 14 9 18 -39 41 -80 38 -92 40 -119 18z"/>
<path d="M1473 1709 c-9 -9 -5 -20 17 -48 67 -84 102 -224 83 -336 -35 -202
-186 -352 -388 -386 -49 -8 -75 -17 -75 -26 0 -17 39 -16 119 2 259 61 424
318 370 577 -13 61 -58 160 -91 201 -18 22 -26 25 -35 16z"/>
<path d="M1106 1678 c-22 -31 -20 -34 17 -30 18 2 57 -6 87 -17 47 -18 57 -19
68 -7 17 17 2 27 -86 57 -69 24 -68 24 -86 -3z"/>
<path d="M1423 1659 c-8 -8 -6 -21 9 -48 l20 -36 -26 30 c-24 28 -26 29 -43
12 -15 -15 -16 -20 -5 -38 16 -25 10 -36 -8 -14 -12 14 -15 14 -31 -1 -14 -13
-16 -22 -8 -42 9 -25 8 -26 -6 -8 -14 19 -16 19 -34 2 -11 -10 -17 -24 -14
-32 3 -9 0 -12 -9 -9 -24 9 -52 -32 -53 -78 -1 -23 -5 -50 -10 -59 -6 -16 -1
-18 36 -18 55 0 100 27 135 80 15 22 32 39 38 37 21 -7 18 -86 -4 -133 -25
-51 -71 -86 -180 -134 -88 -39 -100 -48 -100 -66 0 -17 64 -10 118 12 17 7 32
11 32 9 0 -9 -78 -44 -113 -50 -28 -6 -37 -12 -37 -28 0 -18 5 -19 54 -14 30
3 75 15 100 26 25 11 46 18 46 16 0 -11 -104 -56 -149 -66 -44 -9 -71 -32 -56
-47 3 -3 32 0 66 6 279 52 437 348 319 600 -30 64 -56 102 -70 102 -3 0 -11
-5 -17 -11z"/>
<path d="M1068 1595 c-5 -23 -4 -24 38 -18 23 3 56 1 73 -5 23 -8 32 -7 42 4
6 8 10 16 8 18 -14 11 -79 26 -114 26 -37 0 -43 -3 -47 -25z"/>
<path d="M1073 1552 c-8 -5 -10 -17 -4 -37 6 -26 12 -30 37 -27 32 4 79 41 67
53 -13 11 -87 20 -100 11z"/>
<path d="M880 495 c-20 -24 -8 -50 24 -50 36 0 56 26 37 49 -17 20 -45 21 -61
1z"/>
<path d="M1563 463 c-19 -4 -23 -11 -23 -39 0 -27 -4 -34 -20 -34 -11 0 -20
-7 -20 -15 0 -8 7 -15 16 -15 13 0 14 -6 7 -32 -4 -18 -8 -58 -8 -88 0 -49 2
-55 22 -58 12 -2 37 5 55 15 l33 18 -28 3 c-21 3 -27 8 -23 20 2 9 8 41 11 70
6 46 10 52 30 52 13 0 25 7 29 15 4 11 -1 15 -18 15 -22 0 -24 3 -19 40 6 42
5 43 -44 33z"/>
<path d="M1755 391 c-52 -9 -59 -14 -79 -55 -37 -79 -10 -156 55 -156 37 0 84
45 94 90 4 20 16 32 38 41 32 12 32 13 6 16 -17 3 -30 14 -40 35 -16 36 -20
38 -74 29z m10 -48 c0 -20 7 -31 22 -38 17 -7 21 -15 17 -30 -9 -31 -40 -59
-58 -52 -19 8 -22 83 -4 122 15 33 24 32 23 -2z"/>
<path d="M30 384 c0 -3 4 -13 9 -23 6 -11 4 -40 -4 -81 -20 -91 -19 -100 8
-100 36 0 43 11 56 87 12 67 28 92 51 78 4 -2 1 -37 -7 -76 -16 -78 -10 -96
29 -86 21 6 26 16 37 82 8 49 18 78 27 82 25 9 28 -5 17 -70 -15 -92 11 -121
72 -81 26 17 25 37 -1 27 -14 -5 -15 0 -8 38 5 24 8 62 9 84 0 37 -2 40 -28
43 -16 2 -39 -3 -52 -12 -20 -13 -24 -13 -29 -1 -7 18 -57 20 -74 3 -9 -9 -15
-9 -24 0 -12 12 -88 17 -88 6z"/>
<path d="M406 361 c4 -17 1 -53 -6 -81 -16 -69 -8 -100 28 -100 15 0 37 7 49
15 19 13 22 13 27 0 7 -19 39 -19 77 0 30 16 32 39 2 28 -14 -5 -15 -1 -9 33
3 21 9 60 13 87 l6 47 -31 0 c-33 0 -35 -4 -47 -93 -7 -47 -26 -77 -47 -77 -7
0 -8 15 -4 43 4 23 10 61 13 85 l6 42 -41 0 c-41 0 -41 -1 -36 -29z"/>
<path d="M672 378 c-21 -21 -13 -55 23 -98 19 -23 35 -50 35 -61 0 -25 -17
-25 -25 0 -11 36 -30 42 -55 19 l-23 -21 23 -19 c67 -54 175 20 126 87 -11 16
-11 22 3 46 13 22 13 30 2 43 -16 19 -91 22 -109 4z m91 -14 c3 -4 2 -15 -4
-26 -8 -15 -13 -17 -25 -7 -20 16 -17 39 4 39 10 0 22 -3 25 -6z"/>
<path d="M852 333 c-1 -32 -3 -78 -5 -103 -2 -51 13 -61 64 -40 30 13 43 45
12 33 -14 -6 -15 -1 -9 38 4 24 10 63 13 87 l6 42 -39 0 -39 0 -3 -57z"/>
<path d="M1027 370 c-49 -38 -59 -129 -20 -172 22 -24 70 -23 113 4 35 21 28
38 -9 19 -43 -24 -69 16 -56 87 11 58 45 87 45 38 0 -25 30 -43 50 -31 14 9
13 48 -2 63 -19 19 -92 15 -121 -8z"/>
<path d="M1336 375 c-23 -24 -20 -35 24 -95 22 -29 40 -57 40 -60 0 -20 -17
-17 -35 6 -23 29 -50 28 -62 -2 -14 -38 79 -60 124 -29 28 20 34 48 16 82 -11
21 -12 32 -3 49 7 12 10 30 8 40 -5 26 -88 32 -112 9z m94 -14 c0 -5 -3 -17
-6 -26 -6 -15 -8 -14 -25 1 -10 9 -16 21 -13 25 7 12 44 11 44 0z"/>
<path d="M1893 343 c0 -27 -3 -74 -8 -105 -7 -55 -7 -58 13 -58 32 0 49 24 56
82 9 70 19 87 44 72 25 -16 52 0 52 31 0 30 -33 34 -62 8 -17 -15 -18 -15 -18
0 0 13 -9 17 -39 17 l-38 0 0 -47z"/>
<path d="M2102 360 c-49 -48 -54 -127 -12 -165 26 -24 95 -15 124 16 20 21 20
21 1 16 -11 -2 -27 -8 -36 -11 -16 -7 -49 16 -49 34 0 5 13 11 30 15 45 10 80
42 80 74 0 38 -17 51 -66 51 -34 0 -49 -6 -72 -30z m78 -19 c0 -20 -8 -35 -22
-46 -28 -19 -33 -7 -18 40 14 43 40 47 40 6z"/>
</g>
</svg>
