<?xml version="1.0" standalone="no"?>
<!DOCTYPE svg PUBLIC "-//W3C//DTD SVG 20010904//EN"
 "http://www.w3.org/TR/2001/REC-SVG-20010904/DTD/svg10.dtd">
<svg version="1.0" xmlns="http://www.w3.org/2000/svg"
 width="224.000000pt" height="70.000000pt" viewBox="0 0 224.000000 70.000000"
 preserveAspectRatio="xMidYMid meet">

<g transform="translate(0.000000,70.000000) scale(0.100000,-0.100000)"
fill="#000000" stroke="none">
<path d="M84 681 c-17 -10 -40 -31 -52 -46 -21 -27 -22 -36 -22 -286 l0 -257
26 -32 c49 -58 60 -60 321 -60 267 0 289 5 328 71 19 32 20 52 20 279 0 360
10 350 -350 350 -217 0 -243 -2 -271 -19z m94 -85 c-5 -32 -52 -29 -56 3 -3
18 0 22 12 18 9 -4 16 -2 16 3 0 5 7 7 16 3 8 -3 14 -15 12 -27z m198 20 c18
-18 8 -46 -17 -46 -22 0 -34 22 -25 45 7 19 23 19 42 1z m212 -14 c4 -25 -18
-38 -45 -28 -15 6 -15 8 -3 16 12 8 12 10 1 10 -11 0 -11 3 -1 15 18 22 44 14
48 -13z m-428 -162 c0 -53 -4 -90 -10 -90 -6 0 -10 37 -10 90 0 53 4 90 10 90
6 0 10 -37 10 -90z m210 30 c0 -47 -3 -60 -15 -60 -12 0 -15 13 -15 60 0 47 3
60 15 60 12 0 15 -13 15 -60z m208 32 c2 -15 -2 -22 -12 -22 -11 0 -16 9 -16
26 0 31 23 28 28 -4z m22 -52 c0 -5 -4 -10 -10 -10 -6 0 -10 -35 -10 -85 0
-69 -3 -85 -15 -85 -12 0 -15 16 -15 85 0 69 -3 85 -15 85 -8 0 -15 5 -15 10
0 6 18 10 40 10 22 0 40 -4 40 -10z m-200 -65 c0 -8 -7 -15 -15 -15 -11 0 -15
-12 -15 -50 0 -38 -4 -50 -15 -50 -11 0 -15 12 -15 50 0 28 -4 50 -10 50 -5 0
-10 7 -10 15 0 11 11 15 40 15 29 0 40 -4 40 -15z m-210 -64 c0 -5 -7 -11 -15
-15 -8 -3 -15 -12 -15 -21 0 -8 -4 -15 -10 -15 -5 0 -10 7 -10 15 0 9 -7 18
-15 21 -28 11 -15 24 25 24 22 0 40 -4 40 -9z m19 -118 c0 -21 -3 -32 -6 -25
-3 7 -23 12 -49 12 -32 0 -44 4 -44 15 0 11 12 15 45 15 25 0 45 5 45 10 0 6
2 10 5 10 3 0 5 -17 4 -37z m18 -15 c-2 -13 -4 -5 -4 17 -1 22 1 32 4 23 2
-10 2 -28 0 -40z m383 17 c0 -13 -27 -15 -185 -15 -158 0 -185 2 -185 15 0 13
27 15 185 15 158 0 185 -2 185 -15z m-432 -101 c3 -23 -18 -37 -43 -28 -14 6
-21 35 -10 46 14 14 50 2 53 -18z m206 10 c11 -30 -33 -60 -49 -34 -11 17 5
50 25 50 10 0 21 -7 24 -16z m203 -12 c4 -29 -23 -40 -44 -19 -21 21 -9 49 19
45 13 -2 22 -12 25 -26z"/>
<path d="M790 350 c0 -73 2 -80 20 -80 17 0 20 7 20 42 l0 41 26 -24 26 -24
18 23 c25 31 30 28 30 -18 0 -29 4 -40 15 -40 12 0 15 16 15 80 0 93 -11 101
-57 44 l-29 -36 -24 36 c-14 20 -33 36 -42 36 -16 0 -18 -10 -18 -80z"/>
<path d="M987 423 c-16 -15 -7 -101 14 -127 27 -34 81 -36 103 -4 22 31 22
138 1 138 -11 0 -15 -11 -15 -37 0 -61 -10 -83 -35 -83 -27 0 -35 17 -35 76 0
42 -14 57 -33 37z"/>
<path d="M1152 418 c-7 -7 -12 -24 -12 -39 0 -23 7 -30 35 -40 19 -7 35 -16
35 -20 0 -16 -20 -19 -39 -7 -29 18 -49 -3 -26 -26 21 -21 69 -21 90 0 25 26
14 57 -28 77 -40 20 -42 41 -2 31 26 -6 45 14 24 27 -20 13 -63 11 -77 -3z"/>
<path d="M1264 416 c-3 -7 -4 -42 -2 -77 2 -51 6 -64 21 -67 15 -3 17 6 17 77
0 66 -3 81 -15 81 -9 0 -18 -6 -21 -14z"/>
<path d="M1346 409 c-58 -46 -19 -139 59 -139 37 0 64 23 44 36 -7 4 -29 8
-48 8 -33 1 -36 4 -39 33 -3 28 1 33 22 39 14 3 32 4 40 1 8 -3 20 0 26 8 9
11 7 16 -9 24 -30 17 -66 13 -95 -10z"/>
<path d="M1540 416 c-19 -24 -8 -59 25 -76 17 -8 32 -16 34 -18 3 -1 0 -7 -6
-13 -8 -8 -17 -7 -32 2 -29 19 -49 -1 -26 -25 33 -33 105 -11 105 32 0 26 -13
40 -43 47 -39 10 -36 36 3 29 23 -5 30 -3 30 9 0 28 -68 38 -90 13z"/>
<path d="M1640 415 c0 -10 10 -15 30 -15 l30 0 0 -65 c0 -50 3 -65 15 -65 10
0 15 16 17 63 3 59 4 62 31 65 15 2 27 9 27 18 0 11 -17 14 -75 14 -60 0 -75
-3 -75 -15z"/>
<path d="M1815 405 c-49 -48 -17 -135 50 -135 50 0 80 29 80 80 0 32 -6 47
-24 61 -32 27 -77 24 -106 -6z m89 -37 c16 -26 -4 -53 -40 -53 -23 0 -30 5
-32 23 -7 47 47 69 72 30z"/>
<path d="M1964 416 c-3 -7 -4 -42 -2 -77 2 -51 6 -64 21 -67 12 -2 17 3 17 17
0 28 36 28 45 0 9 -26 41 -21 37 6 -4 28 -4 36 4 67 9 38 -24 68 -76 68 -25 0
-43 -5 -46 -14z m81 -46 c0 -8 -10 -16 -22 -18 -18 -3 -23 2 -23 18 0 16 5 21
23 18 12 -2 22 -10 22 -18z"/>
<path d="M2104 417 c-3 -8 -4 -43 -2 -78 l3 -64 60 0 c47 0 60 3 60 15 0 10
-13 16 -42 18 -49 4 -59 22 -13 22 23 0 30 4 30 20 0 16 -7 20 -30 20 -46 0
-36 18 13 22 29 2 42 8 42 18 0 21 -113 28 -121 7z"/>
</g>
</svg>
