<svg width="40" height="41" viewBox="0 0 40 41" fill="none" xmlns="http://www.w3.org/2000/svg">
<rect y="0.238281" width="40" height="40" rx="20" fill="#3B5998"/>
<path d="M21.7601 25.9989V20.2389H23.3601C24.5601 20.2389 24.9601 20.2389 24.9601 20.1589C24.9601 20.0789 25.0401 19.3589 25.1201 18.4789C25.2001 17.5989 25.2801 16.7189 25.2801 16.5589V16.2389H23.5201H21.7601V14.9589C21.7601 14.2389 21.8401 13.5189 21.9201 13.4389C22.0801 13.0389 22.4801 12.8789 24.0001 12.8789H25.3601V10.8789V8.87891H23.2001C20.8001 8.87891 20.1601 8.95891 19.2001 9.43891C18.5601 9.75891 17.9201 10.3989 17.6001 10.9589C17.2001 11.8389 17.0401 12.3989 17.0401 14.3989L16.9601 16.2389H15.7601H14.5601V18.2389V20.2389H15.7601H16.9601V25.9989V31.7589H19.3601H21.7601V25.9989Z" fill="white"/>
</svg>
