<svg width="40" height="41" viewBox="0 0 40 41" fill="none" xmlns="http://www.w3.org/2000/svg">
<rect y="0.238281" width="40" height="40" rx="20" fill="#125688"/>
<path d="M27.12 8.71875H12.88C10.4 8.71875 8.47998 10.6388 8.47998 13.1188V17.8387V27.2787C8.47998 29.7587 10.48 31.6787 12.88 31.6787H27.04C29.52 31.6787 31.44 29.6787 31.44 27.2787V17.8387V13.1188C31.52 10.6388 29.6 8.71875 27.12 8.71875ZM28.4 11.3587H28.88V11.8388V15.2788H24.96V11.3587H28.4ZM16.72 17.8387C17.44 16.8787 18.72 16.1587 20 16.1587C21.28 16.1587 22.56 16.8787 23.28 17.8387C23.76 18.5588 24.08 19.2787 24.08 20.2387C24.08 22.4788 22.24 24.3188 20 24.3188C17.84 24.3188 15.92 22.5588 15.92 20.2387C15.92 19.3587 16.24 18.5588 16.72 17.8387ZM29.28 27.3587C29.28 28.5588 28.32 29.5188 27.12 29.5188H12.88C11.68 29.5188 10.72 28.5588 10.72 27.3587V17.8387H14.16C13.84 18.5588 13.68 19.4388 13.68 20.2387C13.68 23.6788 16.56 26.5588 20 26.5588C23.44 26.5588 26.32 23.6788 26.32 20.2387C26.32 19.4388 26.16 18.5588 25.84 17.8387H29.28V27.3587Z" fill="white"/>
</svg>
